<?xml version="1.0" encoding="utf-8"?>
<!-- Uploaded to: SVG Repo, www.svgrepo.com, Generator: SVG Repo Mixer Tools -->
<svg fill="#000000" width="800px" height="800px" viewBox="-6 0 32 32" version="1.1" xmlns="http://www.w3.org/2000/svg">
<title>yelp</title>
<path d="M12.063 11.25c-0.031-0.75-0.156-1.469-0.219-2.188-0.063-0.781 0.031-1.625-0.219-2.281-0.344-0.938-1.438-1.25-2.313-1.656-0.844-0.406-1.25-0.719-2.406-0.625-0.688 0.063-1.656 0.344-2.5 0.625-1.188 0.406-2.406 0.844-2.75 1.75-0.375 0.938 0.125 1.594 0.5 2.188 1.156 1.781 2.344 3.594 3.469 5.313 0.219 0.281 0.531 0.5 0.5 0.875-0.688-0.25-1.25-0.438-1.875-0.656-0.594-0.219-1.188-0.625-1.875-0.656-0.813-0.063-1.563 0.406-1.906 1-0.5 0.938-0.625 3.625-0.219 4.813 0.563 1.531 2.594 1.531 3.844 2.438-0.313 0.438-0.75 0.781-0.844 1.281-0.25 1.313 0.781 2.125 1.563 2.5 0.75 0.344 1.875 0.719 2.938 1.094s2.219 0.969 3.219 0.844c1.313-0.188 1.594-1.594 1.531-3.156 1.156 0.313 2.094 1.375 3.406 1.531 1.406 0.188 2.25-1.031 2.813-1.719 0.594-0.688 1.281-1.594 1.406-2.5 0.156-1.375-0.594-1.844-1.406-2.219-0.656-0.281-1.313-0.563-1.938-0.813-0.313-0.125-0.719-0.219-0.875-0.5 1.906-0.594 4.281-0.625 3.969-2.875-0.063-0.688-0.594-1.594-1.094-2.281-0.813-1.156-1.719-1.813-3-2.375-0.781-0.375-1.688-0.938-2.656-0.563-0.438 0.156-0.594 0.625-1.063 0.813zM4.656 6.219c0.906-0.313 1.594-0.563 2.656-0.594 0.281-0.031 0.844-0.031 1.031 0.313 0.156 0.25 0.156 0.844 0.188 1.219 0.188 2.125 0.313 3.938 0.5 6.281 0.063 0.969-0.031 1.75-0.719 1.813-0.813 0.063-1.313-1.031-1.719-1.656-1.188-1.781-2.125-3.188-3.344-5-0.281-0.406-0.594-0.719-0.563-1.094 0.063-0.719 1.25-1.031 1.969-1.281zM15.688 12.969c0.5 0.75 0.906 1.313 0.938 2.281-0.469 0.563-1.563 0.719-2.625 1-0.406 0.125-0.938 0.219-1.438 0.344-0.781 0.188-1.906 0.625-2.094-0.406-0.188-0.813 0.875-1.719 1.375-2.438 0.625-0.875 0.938-1.594 1.625-2.219 0.75-0.688 1.938 1.094 2.219 1.438zM4.75 19.125c-1.063 0.375-1.719 0.656-2.875 0.781-0.844-0.313-0.906-3.688-0.344-4.531 0.125-0.219 0.531-0.406 0.719-0.344 1.125 0.344 2.563 0.969 3.844 1.438 0.656 0.281 1.688 0.469 1.219 1.563-0.219 0.469-2.031 0.938-2.563 1.094zM10.75 19.375c0.031-0.406 0.344-0.719 0.781-0.781 0 0 0.031-0.094 0.094-0.063 1.063 0.281 2.719 0.813 4 1.219 0.406 0.125 1 0.219 1.156 0.563 0.375 0.844-0.625 1.844-1 2.313-0.313 0.438-1.031 1.594-1.875 1.5-0.656-0.063-1.438-1.688-1.781-2.219-0.25-0.406-0.563-0.906-0.781-1.219-0.25-0.375-0.656-0.813-0.594-1.313zM6.875 20.594c0.281-0.344 0.625-0.906 1.094-1 0.313-0.094 0.844 0 1.063 0.313 0.281 0.5 0.125 2.063 0.156 2.844 0.031 0.875 0.125 2.438-0.156 2.75-0.5 0.594-1.906 0.031-2.625-0.219-0.75-0.25-1.906-0.563-2-1.25-0.063-0.531 0.344-0.813 0.75-1.281 0.594-0.781 1.094-1.469 1.719-2.156z"></path>
</svg>